<svg width="502" height="150" viewBox="0 0 502 150" fill="none" xmlns="http://www.w3.org/2000/svg">
<path d="M29.9375 119H11.8125V45.375C11.8125 40.25 12.8125 35.9375 14.8125 32.4375C16.8542 28.8958 19.7083 26.2292 23.375 24.4375C27.0833 22.6042 31.4792 21.6875 36.5625 21.6875C38.2292 21.6875 39.8333 21.8125 41.375 22.0625C42.9167 22.2708 44.4167 22.5417 45.875 22.875L45.6875 36.4375C44.8958 36.2292 44.0625 36.0833 43.1875 36C42.3125 35.9167 41.2917 35.875 40.125 35.875C37.9583 35.875 36.1042 36.25 34.5625 37C33.0625 37.7083 31.9167 38.7708 31.125 40.1875C30.3333 41.6042 29.9375 43.3333 29.9375 45.375V119ZM43.4375 51.375V64.125H1.75V51.375H43.4375ZM89.375 103.75V73.625C89.375 71.4583 89.0208 69.6042 88.3125 68.0625C87.6042 66.4792 86.5 65.25 85 64.375C83.5417 63.5 81.6458 63.0625 79.3125 63.0625C77.3125 63.0625 75.5833 63.4167 74.125 64.125C72.6667 64.7917 71.5417 65.7708 70.75 67.0625C69.9583 68.3125 69.5625 69.7917 69.5625 71.5H51.5625C51.5625 68.625 52.2292 65.8958 53.5625 63.3125C54.8958 60.7292 56.8333 58.4583 59.375 56.5C61.9167 54.5 64.9375 52.9375 68.4375 51.8125C71.9792 50.6875 75.9375 50.125 80.3125 50.125C85.5625 50.125 90.2292 51 94.3125 52.75C98.3958 54.5 101.604 57.125 103.938 60.625C106.312 64.125 107.5 68.5 107.5 73.75V102.688C107.5 106.396 107.729 109.438 108.188 111.812C108.646 114.146 109.312 116.188 110.188 117.938V119H92C91.125 117.167 90.4583 114.875 90 112.125C89.5833 109.333 89.375 106.542 89.375 103.75ZM91.75 77.8125L91.875 88H81.8125C79.4375 88 77.375 88.2708 75.625 88.8125C73.875 89.3542 72.4375 90.125 71.3125 91.125C70.1875 92.0833 69.3542 93.2083 68.8125 94.5C68.3125 95.7917 68.0625 97.2083 68.0625 98.75C68.0625 100.292 68.4167 101.688 69.125 102.938C69.8333 104.146 70.8542 105.104 72.1875 105.812C73.5208 106.479 75.0833 106.812 76.875 106.812C79.5833 106.812 81.9375 106.271 83.9375 105.188C85.9375 104.104 87.4792 102.771 88.5625 101.188C89.6875 99.6042 90.2708 98.1042 90.3125 96.6875L95.0625 104.312C94.3958 106.021 93.4792 107.792 92.3125 109.625C91.1875 111.458 89.75 113.188 88 114.812C86.25 116.396 84.1458 117.708 81.6875 118.75C79.2292 119.75 76.3125 120.25 72.9375 120.25C68.6458 120.25 64.75 119.396 61.25 117.688C57.7917 115.938 55.0417 113.542 53 110.5C51 107.417 50 103.917 50 100C50 96.4583 50.6667 93.3125 52 90.5625C53.3333 87.8125 55.2917 85.5 57.875 83.625C60.5 81.7083 63.7708 80.2708 67.6875 79.3125C71.6042 78.3125 76.1458 77.8125 81.3125 77.8125H91.75ZM149.312 106.188C151.521 106.188 153.479 105.771 155.188 104.938C156.896 104.062 158.229 102.854 159.188 101.312C160.188 99.7292 160.708 97.875 160.75 95.75H177.688C177.646 100.5 176.375 104.729 173.875 108.438C171.375 112.104 168.021 115 163.812 117.125C159.604 119.208 154.896 120.25 149.688 120.25C144.438 120.25 139.854 119.375 135.938 117.625C132.062 115.875 128.833 113.458 126.25 110.375C123.667 107.25 121.729 103.625 120.438 99.5C119.146 95.3333 118.5 90.875 118.5 86.125V84.3125C118.5 79.5208 119.146 75.0625 120.438 70.9375C121.729 66.7708 123.667 63.1458 126.25 60.0625C128.833 56.9375 132.062 54.5 135.938 52.75C139.812 51 144.354 50.125 149.562 50.125C155.104 50.125 159.958 51.1875 164.125 53.3125C168.333 55.4375 171.625 58.4792 174 62.4375C176.417 66.3542 177.646 71 177.688 76.375H160.75C160.708 74.125 160.229 72.0833 159.312 70.25C158.438 68.4167 157.146 66.9583 155.438 65.875C153.771 64.75 151.708 64.1875 149.25 64.1875C146.625 64.1875 144.479 64.75 142.812 65.875C141.146 66.9583 139.854 68.4583 138.938 70.375C138.021 72.25 137.375 74.3958 137 76.8125C136.667 79.1875 136.5 81.6875 136.5 84.3125V86.125C136.5 88.75 136.667 91.2708 137 93.6875C137.333 96.1042 137.958 98.25 138.875 100.125C139.833 102 141.146 103.479 142.812 104.562C144.479 105.646 146.646 106.188 149.312 106.188ZM219.25 120.25C214 120.25 209.292 119.417 205.125 117.75C200.958 116.042 197.417 113.688 194.5 110.688C191.625 107.688 189.417 104.208 187.875 100.25C186.333 96.25 185.562 92 185.562 87.5V85C185.562 79.875 186.292 75.1875 187.75 70.9375C189.208 66.6875 191.292 63 194 59.875C196.75 56.75 200.083 54.3542 204 52.6875C207.917 50.9792 212.333 50.125 217.25 50.125C222.042 50.125 226.292 50.9167 230 52.5C233.708 54.0833 236.812 56.3333 239.312 59.25C241.854 62.1667 243.771 65.6667 245.062 69.75C246.354 73.7917 247 78.2917 247 83.25V90.75H193.25V78.75H229.312V77.375C229.312 74.875 228.854 72.6458 227.938 70.6875C227.062 68.6875 225.729 67.1042 223.938 65.9375C222.146 64.7708 219.854 64.1875 217.062 64.1875C214.688 64.1875 212.646 64.7083 210.938 65.75C209.229 66.7917 207.833 68.25 206.75 70.125C205.708 72 204.917 74.2083 204.375 76.75C203.875 79.25 203.625 82 203.625 85V87.5C203.625 90.2083 204 92.7083 204.75 95C205.542 97.2917 206.646 99.2708 208.062 100.938C209.521 102.604 211.271 103.896 213.312 104.812C215.396 105.729 217.75 106.188 220.375 106.188C223.625 106.188 226.646 105.562 229.438 104.312C232.271 103.021 234.708 101.083 236.75 98.5L245.5 108C244.083 110.042 242.146 112 239.688 113.875C237.271 115.75 234.354 117.292 230.938 118.5C227.521 119.667 223.625 120.25 219.25 120.25ZM290.375 51.375V64.125H251V51.375H290.375ZM260.75 34.6875H278.75V98.625C278.75 100.583 279 102.083 279.5 103.125C280.042 104.167 280.833 104.896 281.875 105.312C282.917 105.688 284.229 105.875 285.812 105.875C286.938 105.875 287.938 105.833 288.812 105.75C289.729 105.625 290.5 105.5 291.125 105.375L291.188 118.625C289.646 119.125 287.979 119.521 286.188 119.812C284.396 120.104 282.417 120.25 280.25 120.25C276.292 120.25 272.833 119.604 269.875 118.312C266.958 116.979 264.708 114.854 263.125 111.938C261.542 109.021 260.75 105.188 260.75 100.438V34.6875ZM331.75 120.25C326.5 120.25 321.792 119.417 317.625 117.75C313.458 116.042 309.917 113.688 307 110.688C304.125 107.688 301.917 104.208 300.375 100.25C298.833 96.25 298.062 92 298.062 87.5V85C298.062 79.875 298.792 75.1875 300.25 70.9375C301.708 66.6875 303.792 63 306.5 59.875C309.25 56.75 312.583 54.3542 316.5 52.6875C320.417 50.9792 324.833 50.125 329.75 50.125C334.542 50.125 338.792 50.9167 342.5 52.5C346.208 54.0833 349.312 56.3333 351.812 59.25C354.354 62.1667 356.271 65.6667 357.562 69.75C358.854 73.7917 359.5 78.2917 359.5 83.25V90.75H305.75V78.75H341.812V77.375C341.812 74.875 341.354 72.6458 340.438 70.6875C339.562 68.6875 338.229 67.1042 336.438 65.9375C334.646 64.7708 332.354 64.1875 329.562 64.1875C327.188 64.1875 325.146 64.7083 323.438 65.75C321.729 66.7917 320.333 68.25 319.25 70.125C318.208 72 317.417 74.2083 316.875 76.75C316.375 79.25 316.125 82 316.125 85V87.5C316.125 90.2083 316.5 92.7083 317.25 95C318.042 97.2917 319.146 99.2708 320.562 100.938C322.021 102.604 323.771 103.896 325.812 104.812C327.896 105.729 330.25 106.188 332.875 106.188C336.125 106.188 339.146 105.562 341.938 104.312C344.771 103.021 347.208 101.083 349.25 98.5L358 108C356.583 110.042 354.646 112 352.188 113.875C349.771 115.75 346.854 117.292 343.438 118.5C340.021 119.667 336.125 120.25 331.75 120.25ZM397.688 106.188C399.896 106.188 401.854 105.771 403.562 104.938C405.271 104.062 406.604 102.854 407.562 101.312C408.562 99.7292 409.083 97.875 409.125 95.75H426.062C426.021 100.5 424.75 104.729 422.25 108.438C419.75 112.104 416.396 115 412.188 117.125C407.979 119.208 403.271 120.25 398.062 120.25C392.812 120.25 388.229 119.375 384.312 117.625C380.438 115.875 377.208 113.458 374.625 110.375C372.042 107.25 370.104 103.625 368.812 99.5C367.521 95.3333 366.875 90.875 366.875 86.125V84.3125C366.875 79.5208 367.521 75.0625 368.812 70.9375C370.104 66.7708 372.042 63.1458 374.625 60.0625C377.208 56.9375 380.438 54.5 384.312 52.75C388.188 51 392.729 50.125 397.938 50.125C403.479 50.125 408.333 51.1875 412.5 53.3125C416.708 55.4375 420 58.4792 422.375 62.4375C424.792 66.3542 426.021 71 426.062 76.375H409.125C409.083 74.125 408.604 72.0833 407.688 70.25C406.812 68.4167 405.521 66.9583 403.812 65.875C402.146 64.75 400.083 64.1875 397.625 64.1875C395 64.1875 392.854 64.75 391.188 65.875C389.521 66.9583 388.229 68.4583 387.312 70.375C386.396 72.25 385.75 74.3958 385.375 76.8125C385.042 79.1875 384.875 81.6875 384.875 84.3125V86.125C384.875 88.75 385.042 91.2708 385.375 93.6875C385.708 96.1042 386.333 98.25 387.25 100.125C388.208 102 389.521 103.479 391.188 104.562C392.854 105.646 395.021 106.188 397.688 106.188ZM454.062 23V119H436.062V23H454.062ZM451.5 82.8125H446.562C446.604 78.1042 447.229 73.7708 448.438 69.8125C449.646 65.8125 451.375 62.3542 453.625 59.4375C455.875 56.4792 458.562 54.1875 461.688 52.5625C464.854 50.9375 468.354 50.125 472.188 50.125C475.521 50.125 478.542 50.6042 481.25 51.5625C484 52.4792 486.354 53.9792 488.312 56.0625C490.312 58.1042 491.854 60.7917 492.938 64.125C494.021 67.4583 494.562 71.5 494.562 76.25V119H476.438V76.125C476.438 73.125 476 70.7708 475.125 69.0625C474.292 67.3125 473.062 66.0833 471.438 65.375C469.854 64.625 467.896 64.25 465.562 64.25C462.979 64.25 460.771 64.7292 458.938 65.6875C457.146 66.6458 455.708 67.9792 454.625 69.6875C453.542 71.3542 452.75 73.3125 452.25 75.5625C451.75 77.8125 451.5 80.2292 451.5 82.8125Z" fill="#1D3557"/>
<rect y="129" width="176" height="21" rx="10.5" fill="#E63946"/>
</svg>
